<svg width="100" height="100" viewBox="0 0 100 100" fill="none" xmlns="http://www.w3.org/2000/svg">
  <defs>
    <linearGradient id="silver-gradient" x1="0%" y1="0%" x2="100%" y2="100%">
      <stop offset="0%" stop-color="#E2E8F0" />
      <stop offset="50%" stop-color="#94A3B8" />
      <stop offset="100%" stop-color="#475569" />
    </linearGradient>
    <filter id="metal-glow" x="-20%" y="-20%" width="140%" height="140%">
      <feGaussianBlur in="SourceGraphic" stdDeviation="1" />
      <feComposite in="SourceGraphic" operator="over" />
    </filter>
  </defs>
  
  <!-- Minimalist Overlapping Bubbles (Single Line Style) -->
  <path d="M35 60C25 60 15 52 15 40C15 28 25 20 35 20C45 20 55 28 55 40C55 46 52 51 47 55L47 65L39 60H35Z" 
        stroke="url(#silver-gradient)" stroke-width="3" stroke-linecap="round" stroke-linejoin="round" filter="url(#metal-glow)" />
  
  <path d="M65 80C75 80 85 72 85 60C85 48 75 40 65 40C55 40 45 48 45 60C45 66 48 71 53 75L53 85L61 80H65Z" 
        stroke="url(#silver-gradient)" stroke-width="3" stroke-linecap="round" stroke-linejoin="round" filter="url(#metal-glow)" />

  <circle cx="35" cy="40" r="1" fill="url(#silver-gradient)" opacity="0.5" />
  <circle cx="41" cy="40" r="1" fill="url(#silver-gradient)" opacity="0.5" />
  <circle cx="29" cy="40" r="1" fill="url(#silver-gradient)" opacity="0.5" />
</svg>
